# xmcd
#
# Track frame offsets: 
#        150
#        19880
#        30374
#        43158
#        59992
#        69320
#        80645
#        91652
#        103819
#        115853
#        130393
#        140797
#        154733
#        167841
#
# Disc length: 2399 seconds
#
# Revision: 0
# Processed by: cddbd v1.5.2PL0 Copyright (c) Steve Scherf et al.
# Submitted via: ExactAudioCopy v0.95b4
#
DISCID=c5095d0e
DTITLE=Karen Young - Sings Nobody's Child and 13 Other Great Songs
DYEAR=1969
DGENRE=Country
TTITLE0=Nobody's Child
TTITLE1=Ribbon Of Darkness
TTITLE2=Love Is A Very Strange Thing
TTITLE3=Allentown Jail
TTITLE4=Bonaparte's Retreat
TTITLE5=There Never Was A Time
TTITLE6=You're Free To Go
TTITLE7=Oh, How I Miss You
TTITLE8=And The Little Doll Smiled
TTITLE9=The White Rose
TTITLE10=Wondrin' What To Do
TTITLE11=My Elusive Dreams
TTITLE12=I Need Your Hand In Mine
TTITLE13=Send Me The Pillow You Dream On
EXTD=
EXTT0=
EXTT1=
EXTT2=
EXTT3=
EXTT4=
EXTT5=
EXTT6=
EXTT7=
EXTT8=
EXTT9=
EXTT10=
EXTT11=
EXTT12=
EXTT13=
PLAYORDER=
